<?xml version="1.0" encoding="UTF-8" standalone="no"?>
<!DOCTYPE svg PUBLIC "-//W3C//DTD SVG 1.1//EN"
 "http://www.w3.org/Graphics/SVG/1.1/DTD/svg11.dtd">
<!-- Generated by graphviz version 2.43.0 (0)
 -->
<!-- Title: src/utility/header/commonTypes.h Pages: 1 -->
<svg width="423pt" height="170pt"
 viewBox="0.00 0.00 423.00 170.00" xmlns="http://www.w3.org/2000/svg" xmlns:xlink="http://www.w3.org/1999/xlink">
<g id="graph0" class="graph" transform="scale(1 1) rotate(0) translate(4 166)">
<title>src/utility/header/commonTypes.h</title>
<!-- Node1 -->
<g id="Node000001" class="node">
<title>Node1</title>
<g id="a_Node000001"><a xlink:title="Provides cross&#45;platform type definitions.">
<polygon fill="#999999" stroke="#666666" points="291,-162 192,-162 192,-132 291,-132 291,-162"/>
<text text-anchor="start" x="200" y="-150" font-family="Helvetica,sans-Serif" font-size="10.00">src/utility/header</text>
<text text-anchor="middle" x="241.5" y="-139" font-family="Helvetica,sans-Serif" font-size="10.00">/commonTypes.h</text>
</a>
</g>
</g>
<!-- Node2 -->
<g id="Node000002" class="node">
<title>Node2</title>
<g id="a_Node000002"><a xlink:href="$calculator_8h.html" xlink:title="Provides functions for math. utilities.">
<polygon fill="white" stroke="#666666" points="238,-96 119,-96 119,-66 238,-66 238,-96"/>
<text text-anchor="start" x="127" y="-84" font-family="Helvetica,sans-Serif" font-size="10.00">src/calculator/header</text>
<text text-anchor="middle" x="178.5" y="-73" font-family="Helvetica,sans-Serif" font-size="10.00">/calculator.h</text>
</a>
</g>
</g>
<!-- Node1&#45;&gt;Node2 -->
<g id="edge11_Node000001_Node000002" class="edge">
<title>Node1&#45;&gt;Node2</title>
<g id="a_edge11_Node000001_Node000002"><a xlink:title=" ">
<path fill="none" stroke="#63b8ff" d="M220.48,-124.65C211.25,-115.27 200.67,-104.53 192.44,-96.16"/>
<polygon fill="#63b8ff" stroke="#63b8ff" points="218.01,-127.13 227.52,-131.8 223,-122.21 218.01,-127.13"/>
</a>
</g>
</g>
<!-- Node5 -->
<g id="Node000005" class="node">
<title>Node5</title>
<g id="a_Node000005"><a xlink:href="$mathUtility_8h.html" xlink:title="Provides functions for math. utilities.">
<polygon fill="white" stroke="#666666" points="370,-96 271,-96 271,-66 370,-66 370,-96"/>
<text text-anchor="start" x="279" y="-84" font-family="Helvetica,sans-Serif" font-size="10.00">src/utility/header</text>
<text text-anchor="middle" x="320.5" y="-73" font-family="Helvetica,sans-Serif" font-size="10.00">/mathUtility.h</text>
</a>
</g>
</g>
<!-- Node1&#45;&gt;Node5 -->
<g id="edge14_Node000001_Node000005" class="edge">
<title>Node1&#45;&gt;Node5</title>
<g id="a_edge14_Node000001_Node000005"><a xlink:title=" ">
<path fill="none" stroke="#63b8ff" d="M266.83,-125.48C278.64,-115.91 292.39,-104.77 303.02,-96.16"/>
<polygon fill="#63b8ff" stroke="#63b8ff" points="264.6,-122.78 259.03,-131.8 269.01,-128.22 264.6,-122.78"/>
</a>
</g>
</g>
<!-- Node3 -->
<g id="Node000003" class="node">
<title>Node3</title>
<g id="a_Node000003"><a xlink:href="$calculator_8cpp.html" xlink:title=" ">
<polygon fill="white" stroke="#666666" points="99,-30 0,-30 0,0 99,0 99,-30"/>
<text text-anchor="start" x="8" y="-18" font-family="Helvetica,sans-Serif" font-size="10.00">src/calculator/src</text>
<text text-anchor="middle" x="49.5" y="-7" font-family="Helvetica,sans-Serif" font-size="10.00">/calculator.cpp</text>
</a>
</g>
</g>
<!-- Node2&#45;&gt;Node3 -->
<g id="edge12_Node000002_Node000003" class="edge">
<title>Node2&#45;&gt;Node3</title>
<g id="a_edge12_Node000002_Node000003"><a xlink:title=" ">
<path fill="none" stroke="#63b8ff" d="M140.96,-61.38C120.78,-51.36 96.3,-39.22 77.74,-30.01"/>
<polygon fill="#63b8ff" stroke="#63b8ff" points="139.68,-64.65 150.19,-65.95 142.79,-58.38 139.68,-64.65"/>
</a>
</g>
</g>
<!-- Node4 -->
<g id="Node000004" class="node">
<title>Node4</title>
<g id="a_Node000004"><a xlink:href="$expressionParser_8cpp.html" xlink:title=" ">
<polygon fill="white" stroke="#666666" points="239.5,-30 117.5,-30 117.5,0 239.5,0 239.5,-30"/>
<text text-anchor="start" x="125.5" y="-18" font-family="Helvetica,sans-Serif" font-size="10.00">src/calculator/src</text>
<text text-anchor="middle" x="178.5" y="-7" font-family="Helvetica,sans-Serif" font-size="10.00">/expressionParser.cpp</text>
</a>
</g>
</g>
<!-- Node2&#45;&gt;Node4 -->
<g id="edge13_Node000002_Node000004" class="edge">
<title>Node2&#45;&gt;Node4</title>
<g id="a_edge13_Node000002_Node000004"><a xlink:title=" ">
<path fill="none" stroke="#63b8ff" d="M178.5,-55.54C178.5,-46.96 178.5,-37.61 178.5,-30.16"/>
<polygon fill="#63b8ff" stroke="#63b8ff" points="175,-55.8 178.5,-65.8 182,-55.8 175,-55.8"/>
</a>
</g>
</g>
<!-- Node6 -->
<g id="Node000006" class="node">
<title>Node6</title>
<g id="a_Node000006"><a xlink:href="$mathUtility_8cpp.html" xlink:title="Provides functions for math. utilities.">
<polygon fill="white" stroke="#666666" points="415,-24.5 258,-24.5 258,-5.5 415,-5.5 415,-24.5"/>
<text text-anchor="middle" x="336.5" y="-12.5" font-family="Helvetica,sans-Serif" font-size="10.00">src/utility/src/mathUtility.cpp</text>
</a>
</g>
</g>
<!-- Node5&#45;&gt;Node6 -->
<g id="edge15_Node000005_Node000006" class="edge">
<title>Node5&#45;&gt;Node6</title>
<g id="a_edge15_Node000005_Node000006"><a xlink:title=" ">
<path fill="none" stroke="#63b8ff" d="M326.51,-55.94C329.24,-45.06 332.28,-32.86 334.29,-24.84"/>
<polygon fill="#63b8ff" stroke="#63b8ff" points="323.08,-55.25 324.05,-65.8 329.87,-56.94 323.08,-55.25"/>
</a>
</g>
</g>
</g>
</svg>
